<?xml version="1.0" standalone="no"?>
<svg viewBox="0 0 200 200" xmlns="http://www.w3.org/2000/svg">
  <path fill="#A0D7FF" d="M46.1,-64.5C60.7,-62.3,74.1,-51.2,80.5,-36.8C86.9,-22.5,86.2,-5.1,80.9,9.5C75.5,24.2,65.4,36.1,54.3,44.7C43.2,53.3,31,58.6,18.5,61.6C6.1,64.6,-6.7,65.3,-20.9,64.3C-35.2,63.3,-51,60.6,-59.5,51.3C-68.1,42,-69.4,26.1,-66.3,12.8C-63.2,-0.5,-55.6,-11.2,-50.1,-22.7C-44.5,-34.1,-41,-46.3,-33,-51.4C-25,-56.5,-12.5,-54.6,1.6,-57.1C15.8,-59.7,31.5,-66.6,46.1,-64.5Z" transform="translate(100 100)" />
</svg>
